<svg width="102" height="37" viewBox="0 0 102 37" fill="none" xmlns="http://www.w3.org/2000/svg">
<path d="M17.9996 0.5C16.596 0.5 15.2299 0.660642 13.9193 0.965194C7.25466 2.50937 2.009 7.75502 0.464828 14.419C0.160276 15.7303 -0.000366211 17.0964 -0.000366211 18.5C-0.000366211 28.4411 8.05854 36.5 17.9996 36.5C19.4032 36.5 20.7694 36.3394 22.0806 36.0348C28.7446 34.4906 33.9903 29.2456 35.5351 22.5823C35.8397 21.2711 36.0003 19.9043 36.0003 18.5C36.0003 8.5589 27.9407 0.5 17.9996 0.5ZM17.9996 29.7724C16.671 29.7724 15.3966 29.5428 14.2132 29.1205C11.0338 27.9866 8.51369 25.4665 7.37982 22.2871C6.95747 21.1037 6.72788 19.8286 6.72788 18.5C6.72788 12.2744 11.7741 7.22758 17.9996 7.22758C19.3283 7.22758 20.6027 7.45716 21.7861 7.87952C24.9655 9.01339 27.4862 11.5335 28.6201 14.7129C29.0425 15.8963 29.2721 17.1714 29.2721 18.5C29.2721 24.7256 24.2252 29.7724 17.9996 29.7724Z" fill="url(#paint0_linear_1_22)"/>
<path d="M17.9996 11.2349C13.9876 11.2349 10.7346 14.4879 10.7346 18.5C10.7346 22.512 13.9876 25.765 17.9996 25.765C22.0117 25.765 25.2647 22.512 25.2647 18.5C25.2647 14.4879 22.0123 11.2349 17.9996 11.2349ZM17.9996 22.8929C15.5739 22.8929 13.6067 20.9264 13.6067 18.5C13.6067 16.0736 15.5739 14.1071 17.9996 14.1071C20.4253 14.1071 22.3925 16.0736 22.3925 18.5C22.3925 20.9264 20.426 22.8929 17.9996 22.8929Z" fill="#FEFCFE"/>
<path d="M21.7861 7.87953C20.6027 7.45718 19.3283 7.22759 17.9997 7.22759C11.7741 7.22759 6.7279 12.2744 6.7279 18.5C6.7279 19.8287 6.95748 21.1038 7.37984 22.2872C5.94142 21.7437 4.59269 20.8929 3.43472 19.735C1.91531 18.2155 0.925352 16.3675 0.464844 14.419C2.00902 7.75504 7.25467 2.50939 13.9193 0.96521C15.8671 1.42572 17.7152 2.41568 19.2346 3.93509C20.3919 5.09239 21.2426 6.44111 21.7861 7.87953Z" fill="url(#paint1_linear_1_22)"/>
<path d="M35.5352 22.5824C33.9903 29.2457 28.7447 34.4907 22.0807 36.0348C20.1329 35.5743 18.2848 34.5844 16.7654 33.065C15.6074 31.907 14.7567 30.5583 14.2132 29.1205C15.3966 29.5429 16.671 29.7725 17.9997 29.7725C24.2252 29.7725 29.2721 24.7256 29.2721 18.5C29.2721 17.1714 29.0425 15.8963 28.6202 14.7129C30.0579 15.2564 31.4066 16.1071 32.5646 17.2651C34.084 18.7845 35.0746 20.6339 35.5352 22.5824Z" fill="url(#paint2_linear_1_22)"/>
<path d="M9.09599 31.1713C11.1765 31.1713 12.8631 29.4848 12.8631 27.4043C12.8631 25.3238 11.1765 23.6372 9.09599 23.6372C7.01549 23.6372 5.32892 25.3238 5.32892 27.4043C5.32892 29.4848 7.01549 31.1713 9.09599 31.1713Z" fill="url(#paint3_linear_1_22)"/>
<path d="M26.9367 13.3306C29.0172 13.3306 30.7038 11.6441 30.7038 9.56358C30.7038 7.48308 29.0172 5.79651 26.9367 5.79651C24.8562 5.79651 23.1696 7.48308 23.1696 9.56358C23.1696 11.6441 24.8562 13.3306 26.9367 13.3306Z" fill="url(#paint4_linear_1_22)"/>
<path d="M59.7049 15.5C59.5486 15.0218 59.3426 14.5933 59.087 14.2145C58.836 13.831 58.5353 13.5043 58.185 13.2344C57.8393 12.9645 57.4463 12.7585 57.006 12.6165C56.5656 12.4744 56.0827 12.4034 55.5571 12.4034C54.6954 12.4034 53.9118 12.6259 53.2063 13.071C52.5008 13.5161 51.9397 14.1719 51.523 15.0384C51.1064 15.9048 50.898 16.9678 50.898 18.2273C50.898 19.4867 51.1087 20.5497 51.5301 21.4162C51.9515 22.2827 52.5221 22.9384 53.2418 23.3835C53.9615 23.8286 54.7711 24.0511 55.6708 24.0511C56.5041 24.0511 57.238 23.8736 57.8725 23.5185C58.5117 23.1586 59.0088 22.652 59.3639 21.9986C59.7238 21.3404 59.9037 20.5663 59.9037 19.6761L60.4435 19.7898H56.0685V18.2273H61.6083V19.7898C61.6083 20.9877 61.3526 22.0294 60.8412 22.9148C60.3346 23.8002 59.6338 24.4867 58.7389 24.9744C57.8488 25.4574 56.8261 25.6989 55.6708 25.6989C54.3829 25.6989 53.2513 25.3958 52.2759 24.7898C51.3052 24.1837 50.5477 23.322 50.0031 22.2045C49.4634 21.0871 49.1935 19.7614 49.1935 18.2273C49.1935 17.0767 49.3474 16.0421 49.6551 15.1236C49.9676 14.2003 50.408 13.4143 50.9762 12.7656C51.5443 12.117 52.2167 11.6198 52.9932 11.2741C53.7697 10.9285 54.6244 10.7557 55.5571 10.7557C56.3242 10.7557 57.0391 10.8717 57.702 11.1037C58.3696 11.331 58.9638 11.6553 59.4847 12.0767C60.0102 12.4934 60.4482 12.9929 60.7986 13.5753C61.149 14.1529 61.3905 14.7945 61.523 15.5H59.7049ZM68.8295 25.7273C67.8446 25.7273 66.9805 25.4929 66.2372 25.0241C65.4985 24.5554 64.9209 23.8996 64.5042 23.0568C64.0923 22.214 63.8863 21.2292 63.8863 20.1023C63.8863 18.9659 64.0923 17.974 64.5042 17.1264C64.9209 16.2789 65.4985 15.6207 66.2372 15.152C66.9805 14.6832 67.8446 14.4489 68.8295 14.4489C69.8143 14.4489 70.6761 14.6832 71.4147 15.152C72.1581 15.6207 72.7357 16.2789 73.1477 17.1264C73.5643 17.974 73.7727 18.9659 73.7727 20.1023C73.7727 21.2292 73.5643 22.214 73.1477 23.0568C72.7357 23.8996 72.1581 24.5554 71.4147 25.0241C70.6761 25.4929 69.8143 25.7273 68.8295 25.7273ZM68.8295 24.2216C69.5776 24.2216 70.1931 24.0298 70.6761 23.6463C71.159 23.2628 71.5165 22.7585 71.7485 22.1335C71.9805 21.5085 72.0965 20.8314 72.0965 20.1023C72.0965 19.3731 71.9805 18.6937 71.7485 18.0639C71.5165 17.4342 71.159 16.9252 70.6761 16.5369C70.1931 16.1487 69.5776 15.9545 68.8295 15.9545C68.0814 15.9545 67.4659 16.1487 66.9829 16.5369C66.5 16.9252 66.1425 17.4342 65.9105 18.0639C65.6785 18.6937 65.5625 19.3731 65.5625 20.1023C65.5625 20.8314 65.6785 21.5085 65.9105 22.1335C66.1425 22.7585 66.5 23.2628 66.9829 23.6463C67.4659 24.0298 68.0814 24.2216 68.8295 24.2216ZM79.5415 25.7557C78.8502 25.7557 78.2228 25.6255 77.6594 25.3651C77.0959 25.0999 76.6485 24.7188 76.3171 24.2216C75.9856 23.7197 75.8199 23.1136 75.8199 22.4034C75.8199 21.7784 75.943 21.2718 76.1892 20.8835C76.4354 20.4905 76.7645 20.1828 77.1764 19.9602C77.5884 19.7377 78.0429 19.572 78.5401 19.4631C79.042 19.3494 79.5462 19.2595 80.0529 19.1932C80.7157 19.108 81.2531 19.044 81.6651 19.0014C82.0817 18.9541 82.3848 18.8759 82.5742 18.767C82.7683 18.6581 82.8654 18.4687 82.8654 18.1989V18.142C82.8654 17.4413 82.6736 16.8968 82.2901 16.5085C81.9113 16.1203 81.336 15.9261 80.5642 15.9261C79.764 15.9261 79.1367 16.1013 78.6821 16.4517C78.2276 16.8021 77.908 17.1761 77.7233 17.5739L76.1324 17.0057C76.4165 16.3428 76.7953 15.8267 77.2688 15.4574C77.747 15.0833 78.2678 14.8229 78.8313 14.6761C79.3995 14.5246 79.9582 14.4489 80.5074 14.4489C80.8578 14.4489 81.2602 14.4915 81.7148 14.5767C82.1741 14.6572 82.6168 14.8253 83.0429 15.081C83.4738 15.3366 83.8313 15.7225 84.1154 16.2386C84.3995 16.7547 84.5415 17.446 84.5415 18.3125V25.5H82.8654V24.0227H82.7801C82.6665 24.2595 82.4771 24.5128 82.212 24.7827C81.9468 25.0526 81.5941 25.2822 81.1537 25.4716C80.7134 25.661 80.176 25.7557 79.5415 25.7557ZM79.7972 24.25C80.4601 24.25 81.0188 24.1198 81.4733 23.8594C81.9326 23.599 82.2782 23.2628 82.5102 22.8509C82.747 22.4389 82.8654 22.0057 82.8654 21.5511V20.017C82.7943 20.1023 82.6381 20.1804 82.3966 20.2514C82.1599 20.3177 81.8852 20.3769 81.5727 20.429C81.265 20.4763 80.9643 20.5189 80.6708 20.5568C80.3819 20.59 80.1476 20.6184 79.9676 20.642C79.532 20.6989 79.1248 20.7912 78.746 20.919C78.372 21.0421 78.069 21.2292 77.837 21.4801C77.6097 21.7263 77.496 22.0625 77.496 22.4886C77.496 23.071 77.7115 23.5114 78.1424 23.8097C78.578 24.1032 79.1296 24.25 79.7972 24.25ZM89.2769 10.9545V25.5H87.6008V10.9545H89.2769ZM100.074 17.0341L98.5685 17.4602C98.4738 17.2093 98.3341 16.9654 98.1495 16.7287C97.9695 16.4872 97.7233 16.2884 97.4108 16.1321C97.0983 15.9759 96.6982 15.8977 96.2105 15.8977C95.5429 15.8977 94.9866 16.0516 94.5415 16.3594C94.1012 16.6624 93.881 17.0483 93.881 17.517C93.881 17.9337 94.0325 18.2628 94.3355 18.5043C94.6386 18.7457 95.112 18.947 95.756 19.108L97.3753 19.5057C98.3507 19.7424 99.0775 20.1046 99.5557 20.5923C100.034 21.0753 100.273 21.6979 100.273 22.4602C100.273 23.0852 100.093 23.6439 99.7333 24.1364C99.3781 24.6288 98.881 25.017 98.2418 25.3011C97.6026 25.5852 96.8592 25.7273 96.0117 25.7273C94.899 25.7273 93.9781 25.4858 93.2489 25.0028C92.5197 24.5199 92.0581 23.8144 91.8639 22.8864L93.4549 22.4886C93.6064 23.0758 93.8928 23.5161 94.3142 23.8097C94.7404 24.1032 95.2967 24.25 95.9833 24.25C96.7645 24.25 97.3848 24.0843 97.8441 23.7528C98.3081 23.4167 98.5401 23.0142 98.5401 22.5455C98.5401 22.1667 98.4075 21.8494 98.1424 21.5938C97.8772 21.3333 97.47 21.1392 96.9208 21.0114L95.1026 20.5852C94.1035 20.3485 93.3696 19.9815 92.9009 19.4844C92.4369 18.9825 92.2049 18.3551 92.2049 17.6023C92.2049 16.9867 92.3777 16.4422 92.7233 15.9688C93.0737 15.4953 93.5495 15.1236 94.1509 14.8537C94.7569 14.5838 95.4435 14.4489 96.2105 14.4489C97.2901 14.4489 98.1376 14.6856 98.7531 15.1591C99.3734 15.6326 99.8138 16.2576 100.074 17.0341Z" fill="#DDDDDD"/>
<path d="M59.7049 15.5L59.2296 15.6553L59.3422 16H59.7049V15.5ZM59.087 14.2145L58.6685 14.4883L58.6725 14.4942L59.087 14.2145ZM58.185 13.2344L57.8772 13.6285L57.8799 13.6305L58.185 13.2344ZM57.006 12.6165L57.1595 12.1406L57.1595 12.1406L57.006 12.6165ZM51.523 15.0384L51.9736 15.255L51.9736 15.255L51.523 15.0384ZM51.5301 21.4162L51.0805 21.6349L51.0805 21.6349L51.5301 21.4162ZM53.2418 23.3835L52.9788 23.8088L53.2418 23.3835ZM57.8725 23.5185L58.1167 23.9548L58.1177 23.9542L57.8725 23.5185ZM59.3639 21.9986L58.9252 21.7587L58.9246 21.7598L59.3639 21.9986ZM59.9037 19.6761L60.0067 19.1869L59.4037 19.0599V19.6761H59.9037ZM60.4435 19.7898V20.2898L60.5465 19.3005L60.4435 19.7898ZM56.0685 19.7898H55.5685V20.2898H56.0685V19.7898ZM56.0685 18.2273V17.7273H55.5685V18.2273H56.0685ZM61.6083 18.2273H62.1083V17.7273H61.6083V18.2273ZM60.8412 22.9148L60.4082 22.6647L60.4072 22.6665L60.8412 22.9148ZM58.7389 24.9744L58.9774 25.4139L58.9782 25.4135L58.7389 24.9744ZM52.2759 24.7898L52.0111 25.2139L52.012 25.2145L52.2759 24.7898ZM50.0031 22.2045L49.5529 22.422L49.5537 22.4236L50.0031 22.2045ZM49.6551 15.1236L49.1815 14.9633L49.181 14.9647L49.6551 15.1236ZM50.9762 12.7656L51.3523 13.0951L51.3523 13.0951L50.9762 12.7656ZM52.9932 11.2741L52.7899 10.8174L52.9932 11.2741ZM57.702 11.1037L57.5368 11.5756L57.5409 11.577L57.702 11.1037ZM59.4847 12.0767L59.1702 12.4654L59.1741 12.4685L59.4847 12.0767ZM60.7986 13.5753L60.3702 13.833L60.3711 13.8346L60.7986 13.5753ZM61.523 15.5V16H62.1257L62.0144 15.4077L61.523 15.5ZM60.1801 15.3447C60.0109 14.8268 59.7855 14.3557 59.5014 13.9348L58.6725 14.4942C58.8998 14.8309 59.0863 15.2168 59.2296 15.6553L60.1801 15.3447ZM59.5053 13.9407C59.2249 13.5121 58.8864 13.1435 58.4901 12.8383L57.8799 13.6305C58.1843 13.865 58.4471 14.1498 58.6686 14.4883L59.5053 13.9407ZM58.4927 12.8403C58.0983 12.5324 57.6525 12.2997 57.1595 12.1406L56.8525 13.0923C57.2401 13.2174 57.5803 13.3966 57.8772 13.6285L58.4927 12.8403ZM57.1595 12.1406C56.6633 11.9806 56.1278 11.9034 55.5571 11.9034V12.9034C56.0375 12.9034 56.468 12.9683 56.8525 13.0923L57.1595 12.1406ZM55.5571 11.9034C54.6042 11.9034 53.7276 12.151 52.9395 12.6481L53.4731 13.4939C54.0959 13.1009 54.7865 12.9034 55.5571 12.9034V11.9034ZM52.9395 12.6481C52.143 13.1506 51.5234 13.8837 51.0724 14.8217L51.9736 15.255C52.356 14.46 52.8585 13.8816 53.4731 13.4939L52.9395 12.6481ZM51.0724 14.8217C50.6148 15.7733 50.398 16.9151 50.398 18.2273H51.398C51.398 17.0205 51.5979 16.0363 51.9736 15.255L51.0724 14.8217ZM50.398 18.2273C50.398 19.5402 50.6174 20.6827 51.0805 21.6349L51.9798 21.1975C51.6001 20.4168 51.398 19.4333 51.398 18.2273H50.398ZM51.0805 21.6349C51.5374 22.5744 52.1678 23.3073 52.9788 23.8088L53.5048 22.9583C52.8763 22.5696 52.3657 21.991 51.9798 21.1975L51.0805 21.6349ZM52.9788 23.8088C53.7826 24.3058 54.6844 24.5511 55.6708 24.5511V23.5511C54.8579 23.5511 54.1404 23.3514 53.5048 22.9583L52.9788 23.8088ZM55.6708 24.5511C56.577 24.5511 57.3973 24.3574 58.1167 23.9548L57.6283 23.0822C57.0787 23.3897 56.4312 23.5511 55.6708 23.5511V24.5511ZM58.1177 23.9542C58.84 23.5475 59.4039 22.9721 59.8033 22.2373L58.9246 21.7598C58.6137 22.3319 58.1833 22.7697 57.6272 23.0828L58.1177 23.9542ZM59.8026 22.2384C60.2096 21.4941 60.4037 20.6345 60.4037 19.6761H59.4037C59.4037 20.4981 59.238 21.1867 58.9252 21.7587L59.8026 22.2384ZM59.8007 20.1654L60.3405 20.279L60.5465 19.3005L60.0067 19.1869L59.8007 20.1654ZM60.4435 19.2898H56.0685V20.2898H60.4435V19.2898ZM56.5685 19.7898V18.2273H55.5685V19.7898H56.5685ZM56.0685 18.7273H61.6083V17.7273H56.0685V18.7273ZM61.1083 18.2273V19.7898H62.1083V18.2273H61.1083ZM61.1083 19.7898C61.1083 20.9151 60.8687 21.8675 60.4082 22.6647L61.2742 23.1648C61.8365 22.1912 62.1083 21.0603 62.1083 19.7898H61.1083ZM60.4072 22.6665C59.9466 23.4716 59.3132 24.0921 58.4997 24.5354L58.9782 25.4135C59.9545 24.8814 60.7226 24.1288 61.2752 23.1631L60.4072 22.6665ZM58.5005 24.5349C57.6933 24.9729 56.7546 25.1989 55.6708 25.1989V26.1989C56.8975 26.1989 58.0043 25.9419 58.9774 25.4139L58.5005 24.5349ZM55.6708 25.1989C54.4645 25.1989 53.4266 24.9161 52.5398 24.3651L52.012 25.2145C53.0759 25.8756 54.3013 26.1989 55.6708 26.1989V25.1989ZM52.5407 24.3657C51.6565 23.8136 50.9597 23.0262 50.4526 21.9855L49.5537 22.4236C50.1356 23.6178 50.954 24.5539 52.0111 25.2139L52.5407 24.3657ZM50.4534 21.9871C49.9532 20.9516 49.6935 19.7034 49.6935 18.2273H48.6935C48.6935 19.8193 48.9736 21.2227 49.5529 22.422L50.4534 21.9871ZM49.6935 18.2273C49.6935 17.1209 49.8415 16.1412 50.1292 15.2824L49.181 14.9647C48.8532 15.9431 48.6935 17.0326 48.6935 18.2273H49.6935ZM50.1287 15.2839C50.4229 14.4147 50.8327 13.6883 51.3523 13.0951L50.6 12.4362C49.9833 13.1403 49.5124 13.9858 49.1815 14.9633L50.1287 15.2839ZM51.3523 13.0951C51.8735 12.5 52.4871 12.0467 53.1965 11.7309L52.7899 10.8174C51.9462 11.1929 51.2152 11.7339 50.6 12.4362L51.3523 13.0951ZM53.1965 11.7309C53.903 11.4165 54.6875 11.2557 55.5571 11.2557V10.2557C54.5612 10.2557 53.6364 10.4406 52.7899 10.8174L53.1965 11.7309ZM55.5571 11.2557C56.2731 11.2557 56.9317 11.3638 57.5368 11.5756L57.8672 10.6318C57.1465 10.3795 56.3752 10.2557 55.5571 10.2557V11.2557ZM57.5409 11.577C58.1558 11.7863 58.6975 12.0829 59.1702 12.4654L59.7992 11.688C59.2302 11.2277 58.5835 10.8756 57.8631 10.6304L57.5409 11.577ZM59.1741 12.4685C59.652 12.8474 60.0503 13.3013 60.3702 13.833L61.227 13.3175C60.8462 12.6845 60.3685 12.1393 59.7953 11.6849L59.1741 12.4685ZM60.3711 13.8346C60.6884 14.3577 60.9095 14.9422 61.0316 15.5923L62.0144 15.4077C61.8715 14.6468 61.6095 13.9481 61.2261 13.316L60.3711 13.8346ZM61.523 15H59.7049V16H61.523V15ZM66.2372 25.0241L65.9693 25.4463L65.9705 25.4471L66.2372 25.0241ZM64.5042 23.0568L64.055 23.2764L64.056 23.2784L64.5042 23.0568ZM64.5042 17.1264L64.0555 16.9058L64.0545 16.9079L64.5042 17.1264ZM66.2372 15.152L65.9705 14.7291L65.9693 14.7298L66.2372 15.152ZM71.4147 15.152L71.1468 15.5742L71.148 15.5749L71.4147 15.152ZM73.1477 17.1264L72.698 17.345L72.699 17.347L73.1477 17.1264ZM73.1477 23.0568L72.6995 22.8352L72.6985 22.8373L73.1477 23.0568ZM71.4147 25.0241L71.148 24.6012L71.1468 24.602L71.4147 25.0241ZM70.6761 23.6463L70.3651 23.2548L70.3651 23.2548L70.6761 23.6463ZM71.7485 22.1335L72.2173 22.3075L72.2173 22.3075L71.7485 22.1335ZM71.7485 18.0639L72.2177 17.8911L72.2177 17.8911L71.7485 18.0639ZM70.6761 16.5369L70.9894 16.1472L70.9894 16.1472L70.6761 16.5369ZM66.9829 16.5369L66.6696 16.1472L66.6696 16.1472L66.9829 16.5369ZM65.9105 18.0639L65.4413 17.8911L65.4413 17.8911L65.9105 18.0639ZM65.9105 22.1335L65.4417 22.3075L65.4417 22.3075L65.9105 22.1335ZM66.9829 23.6463L67.2938 23.2548L67.2938 23.2548L66.9829 23.6463ZM68.8295 25.2273C67.9273 25.2273 67.158 25.0137 66.5039 24.6012L65.9705 25.4471C66.8031 25.9721 67.762 26.2273 68.8295 26.2273V25.2273ZM66.5051 24.602C65.8496 24.186 65.3316 23.6023 64.9524 22.8352L64.056 23.2784C64.5101 24.197 65.1475 24.9248 65.9693 25.4463L66.5051 24.602ZM64.9534 22.8373C64.581 22.0752 64.3863 21.1682 64.3863 20.1023H63.3863C63.3863 21.2901 63.6036 22.3528 64.055 23.2764L64.9534 22.8373ZM64.3863 20.1023C64.3863 19.0263 64.5812 18.1118 64.9539 17.345L64.0545 16.9079C63.6034 17.8361 63.3863 18.9056 63.3863 20.1023H64.3863ZM64.9529 17.347C65.3324 16.5752 65.8503 15.9897 66.5051 15.5742L65.9693 14.7298C65.1468 15.2518 64.5094 15.9826 64.0555 16.9058L64.9529 17.347ZM66.5039 15.5749C67.158 15.1624 67.9273 14.9489 68.8295 14.9489V13.9489C67.762 13.9489 66.8031 14.204 65.9705 14.7291L66.5039 15.5749ZM68.8295 14.9489C69.7317 14.9489 70.4981 15.1624 71.1468 15.5742L71.6826 14.7298C70.8541 14.204 69.8969 13.9489 68.8295 13.9489V14.9489ZM71.148 15.5749C71.8068 15.9903 72.3237 16.575 72.698 17.345L73.5974 16.9079C73.1478 15.9828 72.5094 15.2511 71.6814 14.7291L71.148 15.5749ZM72.699 17.347C73.0757 18.1133 73.2727 19.027 73.2727 20.1023H74.2727C74.2727 18.9048 74.053 17.8346 73.5964 16.9058L72.699 17.347ZM73.2727 20.1023C73.2727 21.1674 73.076 22.0737 72.6995 22.8352L73.5959 23.2784C74.0527 22.3543 74.2727 21.2909 74.2727 20.1023H73.2727ZM72.6985 22.8373C72.3244 23.6025 71.8075 24.1854 71.148 24.6012L71.6814 25.4471C72.5087 24.9254 73.1471 24.1967 73.5969 23.2764L72.6985 22.8373ZM71.1468 24.602C70.4981 25.0137 69.7317 25.2273 68.8295 25.2273V26.2273C69.8969 26.2273 70.8541 25.9721 71.6826 25.4463L71.1468 24.602ZM68.8295 24.7216C69.6657 24.7216 70.398 24.5056 70.987 24.0379L70.3651 23.2548C69.9883 23.554 69.4895 23.7216 68.8295 23.7216V24.7216ZM70.987 24.0379C71.5472 23.593 71.9562 23.0109 72.2173 22.3075L71.2798 21.9595C71.0769 22.5061 70.7709 22.9326 70.3651 23.2548L70.987 24.0379ZM72.2173 22.3075C72.4718 21.6219 72.5965 20.8853 72.5965 20.1023H71.5965C71.5965 20.7776 71.4893 21.3952 71.2798 21.9595L72.2173 22.3075ZM72.5965 20.1023C72.5965 19.3192 72.4718 18.5808 72.2177 17.8911L71.2794 18.2368C71.4893 18.8066 71.5965 19.427 71.5965 20.1023H72.5965ZM72.2177 17.8911C71.957 17.1836 71.5488 16.597 70.9894 16.1472L70.3628 16.9266C70.7693 17.2534 71.076 17.6848 71.2794 18.2368L72.2177 17.8911ZM70.9894 16.1472C70.4003 15.6736 69.6671 15.4545 68.8295 15.4545V16.4545C69.4881 16.4545 69.986 16.6237 70.3628 16.9266L70.9894 16.1472ZM68.8295 15.4545C67.9919 15.4545 67.2587 15.6736 66.6696 16.1472L67.2962 16.9266C67.673 16.6237 68.1709 16.4545 68.8295 16.4545V15.4545ZM66.6696 16.1472C66.1102 16.597 65.7019 17.1836 65.4413 17.8911L66.3796 18.2368C66.583 17.6848 66.8897 17.2534 67.2962 16.9266L66.6696 16.1472ZM65.4413 17.8911C65.1872 18.5808 65.0625 19.3192 65.0625 20.1023H66.0625C66.0625 19.427 66.1697 18.8066 66.3796 18.2368L65.4413 17.8911ZM65.0625 20.1023C65.0625 20.8853 65.1872 21.6219 65.4417 22.3075L66.3792 21.9595C66.1697 21.3952 66.0625 20.7776 66.0625 20.1023H65.0625ZM65.4417 22.3075C65.7028 23.0109 66.1118 23.593 66.672 24.0379L67.2938 23.2548C66.8881 22.9326 66.5821 22.5061 66.3792 21.9595L65.4417 22.3075ZM66.672 24.0379C67.261 24.5056 67.9933 24.7216 68.8295 24.7216V23.7216C68.1695 23.7216 67.6707 23.554 67.2938 23.2548L66.672 24.0379ZM77.6594 25.3651L77.4465 25.8175L77.4496 25.8189L77.6594 25.3651ZM76.3171 24.2216L75.8998 24.4971L75.901 24.4989L76.3171 24.2216ZM76.1892 20.8835L76.6115 21.1513L76.6129 21.149L76.1892 20.8835ZM78.5401 19.4631L78.6471 19.9515L78.6505 19.9507L78.5401 19.4631ZM80.0529 19.1932L79.9891 18.6973L79.988 18.6974L80.0529 19.1932ZM81.6651 19.0014L81.7165 19.4988L81.7215 19.4982L81.6651 19.0014ZM82.5742 18.767L82.3295 18.3309L82.3249 18.3336L82.5742 18.767ZM82.2901 16.5085L81.9322 16.8577L81.9344 16.8599L82.2901 16.5085ZM78.6821 16.4517L78.9874 16.8477L78.9874 16.8477L78.6821 16.4517ZM77.7233 17.5739L77.5551 18.0447L77.9847 18.1982L78.1768 17.7844L77.7233 17.5739ZM76.1324 17.0057L75.6728 16.8087L75.4633 17.2976L75.9642 17.4766L76.1324 17.0057ZM77.2688 15.4574L77.5763 15.8516L77.5768 15.8512L77.2688 15.4574ZM78.8313 14.6761L78.9573 15.16L78.9601 15.1593L78.8313 14.6761ZM81.7148 14.5767L81.6226 15.0682L81.6285 15.0692L81.7148 14.5767ZM83.0429 15.081L82.7857 15.5097L82.7878 15.511L83.0429 15.081ZM84.1154 16.2386L83.6773 16.4797L83.6773 16.4798L84.1154 16.2386ZM84.5415 25.5V26H85.0415V25.5H84.5415ZM82.8654 25.5H82.3654V26H82.8654V25.5ZM82.8654 24.0227H83.3654V23.5227H82.8654V24.0227ZM82.7801 24.0227V23.5227H82.4655L82.3294 23.8064L82.7801 24.0227ZM82.212 24.7827L82.5686 25.1331L82.5686 25.1331L82.212 24.7827ZM81.1537 25.4716L80.9562 25.0123L80.9562 25.0123L81.1537 25.4716ZM81.4733 23.8594L81.2267 23.4244L81.2248 23.4255L81.4733 23.8594ZM82.5102 22.8509L82.0767 22.6017L82.0746 22.6055L82.5102 22.8509ZM82.8654 20.017H83.3654V18.636L82.4813 19.697L82.8654 20.017ZM82.3966 20.2514L82.5314 20.7329L82.5377 20.7311L82.3966 20.2514ZM81.5727 20.429L81.6488 20.9232L81.6549 20.9222L81.5727 20.429ZM80.6708 20.5568L80.7278 21.0536L80.7347 21.0527L80.6708 20.5568ZM79.9676 20.642L80.0323 21.1378L80.0329 21.1378L79.9676 20.642ZM78.746 20.919L78.9024 21.394L78.9059 21.3928L78.746 20.919ZM77.837 21.4801L77.4698 21.1407L77.4696 21.141L77.837 21.4801ZM78.1424 23.8097L77.8577 24.2208L77.8629 24.2243L78.1424 23.8097ZM79.5415 25.2557C78.9144 25.2557 78.3597 25.1379 77.8692 24.9112L77.4496 25.8189C78.086 26.113 78.7861 26.2557 79.5415 26.2557V25.2557ZM77.8723 24.9126C77.3876 24.6846 77.0118 24.3624 76.7331 23.9442L75.901 24.4989C76.2852 25.0751 76.8043 25.5153 77.4465 25.8175L77.8723 24.9126ZM76.7343 23.9461C76.466 23.5398 76.3199 23.0337 76.3199 22.4034H75.3199C75.3199 23.1936 75.5053 23.8996 75.8998 24.4971L76.7343 23.9461ZM76.3199 22.4034C76.3199 21.8402 76.4312 21.4355 76.6115 21.1513L75.767 20.6158C75.4548 21.108 75.3199 21.7166 75.3199 22.4034H76.3199ZM76.6129 21.149C76.8128 20.83 77.0775 20.582 77.4141 20.4001L76.9388 19.5203C76.4516 19.7835 76.0581 20.1511 75.7655 20.6181L76.6129 21.149ZM77.4141 20.4001C77.7815 20.2016 78.1916 20.0513 78.6471 19.9515L78.4331 18.9746C77.8943 19.0927 77.3952 19.2737 76.9388 19.5203L77.4141 20.4001ZM78.6505 19.9507C79.1374 19.8405 79.6265 19.7532 80.1177 19.689L79.988 18.6974C79.466 18.7657 78.9465 18.8584 78.4297 18.9754L78.6505 19.9507ZM80.1166 19.6891C80.7776 19.6041 81.3104 19.5408 81.7165 19.4988L81.6136 18.5041C81.1959 18.5473 80.6539 18.6118 79.9891 18.6973L80.1166 19.6891ZM81.7215 19.4982C82.1551 19.449 82.5424 19.3621 82.8234 19.2005L82.3249 18.3336C82.2272 18.3898 82.0084 18.4592 81.6086 18.5046L81.7215 19.4982ZM82.8188 19.2031C83.2067 18.9855 83.3654 18.6041 83.3654 18.1989H82.3654C82.3654 18.2752 82.3516 18.3075 82.3476 18.3153C82.3457 18.319 82.3445 18.3203 82.3438 18.321C82.3429 18.3219 82.3392 18.3255 82.3295 18.331L82.8188 19.2031ZM83.3654 18.1989V18.142H82.3654V18.1989H83.3654ZM83.3654 18.142C83.3654 17.3488 83.146 16.6635 82.6458 16.1571L81.9344 16.8599C82.2012 17.13 82.3654 17.5338 82.3654 18.142H83.3654ZM82.648 16.1594C82.1413 15.64 81.4131 15.4261 80.5642 15.4261V16.4261C81.259 16.4261 81.6813 16.6006 81.9322 16.8577L82.648 16.1594ZM80.5642 15.4261C79.6963 15.4261 78.9476 15.6158 78.3769 16.0557L78.9874 16.8477C79.3258 16.5869 79.8318 16.4261 80.5642 16.4261V15.4261ZM78.3769 16.0557C77.8777 16.4405 77.4971 16.8738 77.2698 17.3633L78.1768 17.7844C78.3189 17.4785 78.5775 17.1637 78.9874 16.8477L78.3769 16.0557ZM77.8915 17.103L76.3006 16.5348L75.9642 17.4766L77.5551 18.0447L77.8915 17.103ZM76.592 17.2026C76.8495 16.6018 77.1815 16.1596 77.5763 15.8516L76.9613 15.0631C76.4091 15.4938 75.9835 16.0838 75.6728 16.8087L76.592 17.2026ZM77.5768 15.8512C78.0035 15.5175 78.4629 15.2888 78.9573 15.16L78.7052 14.1923C78.0728 14.357 77.4905 14.6492 76.9607 15.0636L77.5768 15.8512ZM78.9601 15.1593C79.4892 15.0182 80.0046 14.9489 80.5074 14.9489V13.9489C79.9117 13.9489 79.3097 14.0311 78.7024 14.193L78.9601 15.1593ZM80.5074 14.9489C80.8189 14.9489 81.1895 14.9869 81.6227 15.0681L81.8069 14.0853C81.331 13.996 80.8967 13.9489 80.5074 13.9489V14.9489ZM81.6285 15.0692C82.0235 15.1384 82.4086 15.2835 82.7857 15.5097L83.3002 14.6522C82.8249 14.3671 82.3247 14.176 81.8011 14.0842L81.6285 15.0692ZM82.7878 15.511C83.1294 15.7137 83.4286 16.0279 83.6773 16.4797L84.5534 15.9975C84.2339 15.4171 83.8182 14.9596 83.2981 14.651L82.7878 15.511ZM83.6773 16.4798C83.9061 16.8953 84.0415 17.4935 84.0415 18.3125H85.0415C85.0415 17.3986 84.8928 16.6142 84.5534 15.9975L83.6773 16.4798ZM84.0415 18.3125V25.5H85.0415V18.3125H84.0415ZM84.5415 25H82.8654V26H84.5415V25ZM83.3654 25.5V24.0227H82.3654V25.5H83.3654ZM82.8654 23.5227H82.7801V24.5227H82.8654V23.5227ZM82.3294 23.8064C82.2475 23.9769 82.0974 24.1858 81.8553 24.4323L82.5686 25.1331C82.8568 24.8397 83.0855 24.542 83.2309 24.2391L82.3294 23.8064ZM81.8553 24.4323C81.646 24.6453 81.3522 24.8419 80.9562 25.0123L81.3513 25.9309C81.8359 25.7225 82.2476 25.4598 82.5686 25.1331L81.8553 24.4323ZM80.9562 25.0123C80.5949 25.1677 80.1289 25.2557 79.5415 25.2557V26.2557C80.223 26.2557 80.8318 26.1543 81.3513 25.9309L80.9562 25.0123ZM79.7972 24.75C80.5245 24.75 81.1741 24.607 81.7219 24.2932L81.2248 23.4255C80.8634 23.6325 80.3956 23.75 79.7972 23.75V24.75ZM81.7199 24.2943C82.2488 23.9944 82.6642 23.5963 82.9459 23.0962L82.0746 22.6055C81.8923 22.9292 81.6164 23.2035 81.2267 23.4244L81.7199 24.2943ZM82.9438 23.1C83.222 22.6158 83.3654 22.0971 83.3654 21.5511H82.3654C82.3654 21.9142 82.272 22.262 82.0767 22.6017L82.9438 23.1ZM83.3654 21.5511V20.017H82.3654V21.5511H83.3654ZM82.4813 19.697C82.508 19.6649 82.5193 19.6683 82.4713 19.6923C82.4284 19.7138 82.3591 19.7413 82.2555 19.7717L82.5377 20.7311C82.6756 20.6905 82.8051 20.6435 82.9185 20.5868C83.0268 20.5327 83.1517 20.4544 83.2495 20.3371L82.4813 19.697ZM82.2618 19.7699C82.0465 19.8302 81.7901 19.8859 81.4905 19.9358L81.6549 20.9222C81.9804 20.8679 82.2733 20.8052 82.5314 20.7329L82.2618 19.7699ZM81.4967 19.9348C81.1928 19.9816 80.8961 20.0236 80.6068 20.0609L80.7347 21.0527C81.0325 21.0143 81.3372 20.9711 81.6488 20.9232L81.4967 19.9348ZM80.6138 20.0601C80.3236 20.0934 80.0862 20.1221 79.9024 20.1463L80.0329 21.1378C80.2089 21.1146 80.4403 21.0865 80.7278 21.0536L80.6138 20.0601ZM79.903 20.1462C79.4381 20.2069 78.9988 20.306 78.5862 20.4453L78.9059 21.3928C79.2509 21.2764 79.6259 21.1908 80.0323 21.1378L79.903 20.1462ZM78.5897 20.4441C78.1474 20.5897 77.7677 20.8185 77.4698 21.1407L78.2041 21.8195C78.3702 21.6399 78.5965 21.4946 78.9024 21.394L78.5897 20.4441ZM77.4696 21.141C77.1357 21.5027 76.996 21.9722 76.996 22.4886H77.996C77.996 22.1528 78.0837 21.95 78.2044 21.8193L77.4696 21.141ZM76.996 22.4886C76.996 23.2138 77.2753 23.8175 77.8577 24.2208L78.427 23.3986C78.1476 23.2052 77.996 22.9283 77.996 22.4886H76.996ZM77.8629 24.2243C78.4009 24.5868 79.0569 24.75 79.7972 24.75V23.75C79.2022 23.75 78.755 23.6196 78.4218 23.395L77.8629 24.2243ZM89.2769 10.9545H89.7769V10.4545H89.2769V10.9545ZM89.2769 25.5V26H89.7769V25.5H89.2769ZM87.6008 25.5H87.1008V26H87.6008V25.5ZM87.6008 10.9545V10.4545H87.1008V10.9545H87.6008ZM88.7769 10.9545V25.5H89.7769V10.9545H88.7769ZM89.2769 25H87.6008V26H89.2769V25ZM88.1008 25.5V10.9545H87.1008V25.5H88.1008ZM87.6008 11.4545H89.2769V10.4545H87.6008V11.4545ZM100.074 17.0341L100.21 17.5152L100.715 17.3724L100.548 16.8751L100.074 17.0341ZM98.5685 17.4602L98.1007 17.6368L98.2628 18.0664L98.7046 17.9413L98.5685 17.4602ZM98.1495 16.7287L97.7484 17.0275L97.7552 17.0362L98.1495 16.7287ZM97.4108 16.1321L97.6344 15.6849L97.6344 15.6849L97.4108 16.1321ZM94.5415 16.3594L94.825 16.7713L94.8259 16.7706L94.5415 16.3594ZM94.3355 18.5043L94.0239 18.8953L94.0239 18.8953L94.3355 18.5043ZM95.756 19.108L95.6347 19.593L95.6367 19.5935L95.756 19.108ZM97.3753 19.5057L97.256 19.9913L97.2574 19.9916L97.3753 19.5057ZM99.5557 20.5923L99.1987 20.9424L99.2004 20.9441L99.5557 20.5923ZM99.7333 24.1364L99.3296 23.8413L99.3277 23.8439L99.7333 24.1364ZM93.2489 25.0028L93.525 24.586L93.525 24.586L93.2489 25.0028ZM91.8639 22.8864L91.7427 22.4013L91.2761 22.5179L91.3745 22.9887L91.8639 22.8864ZM93.4549 22.4886L93.939 22.3637L93.815 21.8832L93.3336 22.0036L93.4549 22.4886ZM94.3142 23.8097L94.0284 24.2199L94.0306 24.2214L94.3142 23.8097ZM97.8441 23.7528L98.1366 24.1583L98.1374 24.1577L97.8441 23.7528ZM98.1424 21.5938L97.792 21.9505L97.7953 21.9537L98.1424 21.5938ZM96.9208 21.0114L96.8067 21.4982L96.8074 21.4983L96.9208 21.0114ZM95.1026 20.5852L94.9873 21.0718L94.9885 21.072L95.1026 20.5852ZM92.9009 19.4844L92.5337 19.8238L92.5371 19.8274L92.9009 19.4844ZM92.7233 15.9688L92.3214 15.6713L92.3195 15.6739L92.7233 15.9688ZM94.1509 14.8537L93.9475 14.3969L93.9461 14.3975L94.1509 14.8537ZM98.7531 15.1591L98.4483 15.5554L98.4498 15.5565L98.7531 15.1591ZM99.938 16.553L98.4323 16.9791L98.7046 17.9413L100.21 17.5152L99.938 16.553ZM99.0363 17.2837C98.9218 16.9804 98.7557 16.6929 98.5437 16.4212L97.7552 17.0362C97.9125 17.2379 98.0257 17.4382 98.1007 17.6368L99.0363 17.2837ZM98.5504 16.43C98.3168 16.1165 98.0056 15.8705 97.6344 15.6849L97.1872 16.5793C97.441 16.7062 97.6222 16.858 97.7485 17.0274L98.5504 16.43ZM97.6344 15.6849C97.2306 15.483 96.7469 15.3977 96.2105 15.3977V16.3977C96.6495 16.3977 96.966 16.4687 97.1872 16.5793L97.6344 15.6849ZM96.2105 15.3977C95.4653 15.3977 94.8035 15.5703 94.2571 15.9481L94.8259 16.7706C95.1696 16.5329 95.6205 16.3977 96.2105 16.3977V15.3977ZM94.258 15.9475C93.7042 16.3286 93.381 16.8586 93.381 17.517H94.381C94.381 17.238 94.4981 16.9962 94.825 16.7713L94.258 15.9475ZM93.381 17.517C93.381 18.0728 93.5919 18.551 94.0239 18.8953L94.6471 18.1132C94.4731 17.9745 94.381 17.7947 94.381 17.517H93.381ZM94.0239 18.8953C94.4094 19.2024 94.964 19.4253 95.6347 19.593L95.8773 18.6229C95.2601 18.4686 94.8678 18.289 94.6471 18.1132L94.0239 18.8953ZM95.6367 19.5935L97.256 19.9913L97.4946 19.0201L95.8752 18.6224L95.6367 19.5935ZM97.2574 19.9916C98.182 20.216 98.8098 20.5458 99.1987 20.9424L99.9127 20.2423C99.3452 19.6635 98.5194 19.2689 97.4932 19.0198L97.2574 19.9916ZM99.2004 20.9441C99.5743 21.3217 99.773 21.8122 99.773 22.4602H100.773C100.773 21.5836 100.494 20.8288 99.911 20.2405L99.2004 20.9441ZM99.773 22.4602C99.773 22.982 99.6252 23.4368 99.3296 23.8414L100.137 24.4314C100.561 23.8511 100.773 23.1885 100.773 22.4602H99.773ZM99.3277 23.8439C99.0318 24.2542 98.6095 24.5905 98.0387 24.8442L98.4449 25.758C99.1524 25.4436 99.7245 25.0033 100.139 24.4288L99.3277 23.8439ZM98.0387 24.8442C97.4755 25.0946 96.8037 25.2273 96.0117 25.2273V26.2273C96.9147 26.2273 97.7297 26.0759 98.4449 25.758L98.0387 24.8442ZM96.0117 25.2273C94.9706 25.2273 94.1526 25.0017 93.525 24.586L92.9728 25.4197C93.8035 25.9699 94.8274 26.2273 96.0117 26.2273V25.2273ZM93.525 24.586C92.9153 24.1822 92.523 23.5951 92.3533 22.784L91.3745 22.9887C91.5931 24.0337 92.1241 24.8576 92.9728 25.4197L93.525 24.586ZM91.9852 23.3714L93.5761 22.9737L93.3336 22.0036L91.7427 22.4013L91.9852 23.3714ZM92.9707 22.6136C93.1464 23.2945 93.4918 23.8461 94.0284 24.2199L94.6 23.3994C94.2939 23.1861 94.0663 22.8571 93.939 22.3637L92.9707 22.6136ZM94.0306 24.2214C94.5635 24.5885 95.228 24.75 95.9833 24.75V23.75C95.3654 23.75 94.9173 23.6179 94.5979 23.3979L94.0306 24.2214ZM95.9833 24.75C96.8306 24.75 97.5653 24.5706 98.1366 24.1583L97.5515 23.3474C97.2043 23.5979 96.6984 23.75 95.9833 23.75V24.75ZM98.1374 24.1577C98.6988 23.751 99.0401 23.2108 99.0401 22.5455H98.0401C98.0401 22.8176 97.9174 23.0823 97.5507 23.3479L98.1374 24.1577ZM99.0401 22.5455C99.0401 22.0352 98.8554 21.5867 98.4894 21.2338L97.7953 21.9537C97.9596 22.1122 98.0401 22.2981 98.0401 22.5455H99.0401ZM98.4927 21.237C98.1365 20.8871 97.63 20.6631 97.0341 20.5244L96.8074 21.4983C97.31 21.6153 97.6179 21.7795 97.792 21.9505L98.4927 21.237ZM97.0349 20.5246L95.2167 20.0984L94.9885 21.072L96.8067 21.4982L97.0349 20.5246ZM95.2179 20.0987C94.2691 19.8739 93.6406 19.5401 93.2647 19.1414L92.5371 19.8274C93.0987 20.423 93.9379 20.8231 94.9873 21.0718L95.2179 20.0987ZM93.268 19.1449C92.8984 18.7451 92.7049 18.2431 92.7049 17.6023H91.7049C91.7049 18.4671 91.9753 19.2198 92.5337 19.8238L93.268 19.1449ZM92.7049 17.6023C92.7049 17.0871 92.8472 16.647 93.1272 16.2636L92.3195 15.6739C91.9081 16.2375 91.7049 16.8864 91.7049 17.6023H92.7049ZM93.1252 16.2662C93.4187 15.8695 93.823 15.5489 94.3556 15.3099L93.9461 14.3975C93.2761 14.6983 92.7287 15.121 92.3214 15.6713L93.1252 16.2662ZM94.3543 15.3105C94.8871 15.0732 95.5027 14.9489 96.2105 14.9489V13.9489C95.3843 13.9489 94.6268 14.0944 93.9475 14.3969L94.3543 15.3105ZM96.2105 14.9489C97.222 14.9489 97.9486 15.171 98.4483 15.5554L99.058 14.7628C98.3267 14.2002 97.3581 13.9489 96.2105 13.9489V14.9489ZM98.4498 15.5565C98.9865 15.9663 99.3698 16.5063 99.6001 17.1931L100.548 16.8751C100.258 16.0088 99.7603 15.2989 99.0565 14.7617L98.4498 15.5565Z" fill="#DDDDDD"/>
<defs>
<linearGradient id="paint0_linear_1_22" x1="30.5552" y1="6.63588" x2="5.83498" y2="29.9953" gradientUnits="userSpaceOnUse">
<stop stop-color="#F38856"/>
<stop offset="0.23" stop-color="#F0625C"/>
<stop offset="1" stop-color="#5C3DAB"/>
</linearGradient>
<linearGradient id="paint1_linear_1_22" x1="16.8604" y1="3.55156" x2="2.79952" y2="17.5368" gradientUnits="userSpaceOnUse">
<stop stop-color="#F67986"/>
<stop offset="1" stop-color="#8951BA"/>
</linearGradient>
<linearGradient id="paint2_linear_1_22" x1="32.9421" y1="19.7196" x2="18.8812" y2="33.7055" gradientUnits="userSpaceOnUse">
<stop stop-color="#F67986"/>
<stop offset="1" stop-color="#8951BA"/>
</linearGradient>
<linearGradient id="paint3_linear_1_22" x1="11.8463" y1="24.8306" x2="6.34498" y2="29.9779" gradientUnits="userSpaceOnUse">
<stop stop-color="#A267B9"/>
<stop offset="1" stop-color="#704BB4"/>
</linearGradient>
<linearGradient id="paint4_linear_1_22" x1="29.2265" y1="7.42034" x2="25.4708" y2="10.9351" gradientUnits="userSpaceOnUse">
<stop stop-color="#F7A8A5"/>
<stop offset="0.97" stop-color="#D074C4"/>
<stop offset="1" stop-color="#CF76A9"/>
</linearGradient>
</defs>
</svg>
